PathFileType	4	(X/Y/Z)	C:/Users/beibeiliu/ov580/test_trc/User2\sequence.26_training_dense_left.trc
DataRate	CameraRate	NumFrames	NumMarkers	Units	OrigDataRate	OrigDataStartFrame	OrigNumFrames
120	120	19	19	mm	120	82	109
Frame#	Time	ThumbCMC			ThumbMCP			ThumbIP			ThumbTip			IndexMCP			IndexPIP			IndexTip			MiddleMCP			MiddlePIP			MiddleTip			RingMCP			RingPIP			RingTip			PinkyMCP			PinkyPIP			PinkyTip			BackHand1			BackHand2			BackHand3	
		X0	Y0	Z0	X1	Y1	Z1	X2	Y2	Z2	X3	Y3	Z3	X4	Y4	Z4	X5	Y5	Z5	X6	Y6	Z6	X7	Y7	Z7	X8	Y8	Z8	X9	Y9	Z9	X10	Y10	Z10	X11	Y11	Z11	X12	Y12	Z12	X13	Y13	Z13	X14	Y14	Z14	X15	Y15	Z15	X16	Y16	Z16	X17	Y17	Z17	X18	Y18	Z18	
81	0.675	-162.598	27.4123	-9.58945	-143.555	25.6085	-29.7139	-120.335	27.3285	-53.0873	-101.68	23.0623	-63.5496	-189.366	34.9873	-92.3217	-190.555	34.4241	-118.28	-191.193	35.9823	-147.548	-208.434	37.6085	-96.4674	-206.611	37.5104	-125.327	-212.439	40.4639	-155.095	-245.032	23.384	-85.7137	-254.934	15.1024	-107.995	-260.267	4.9349	-139.681	-257.379	15.6672	-71.078	-264.505	8.16228	-91.6404	-275.917	3.0719	-114.228	-235.872	40.9923	-29.4213	-231.036	45.5445	1.32644	-197.055	46.2775	-21.0454	
82	0.683333	-172.491	42.3139	-10.3504	-154.147	42.9643	-27.1871	-130.707	47.1551	-56.2767	-112.97	49.2281	-68.8677	-192.4	25.3934	-93.8189	-190.18	18.1989	-117.376	-193.652	12.5451	-143.791	-213.482	19.3141	-94.5225	-209.165	10.936	-127.329	-211.67	6.55918	-155.719	-239.828	-3.10124	-85.9592	-243.981	-19.5031	-104.72	-240.576	-33.5142	-131.21	-252.04	-9.32372	-63.5138	-254.896	-23.6363	-85.9858	-257.636	-34.6698	-106.638	-239.624	28.8557	-35.5064	-238.994	41.8765	-3.19629	-209.989	48.4622	-22.8372	
83	0.691667	-194.466	63.5838	-8.01575	-174.55	75.9464	-29.1824	-156.469	82.0242	-56.3579	-138.402	92.1734	-70.3492	-193.214	32.5896	-90.915	-186.259	22.6884	-115.335	-182.182	15.5383	-139.825	-208.911	14.5097	-97.9132	-199.251	5.06544	-122.834	-193.746	-2.14324	-149.267	-219.523	-12.7403	-82.5659	-211.231	-30.367	-99.9079	-200.575	-46.9604	-123.225	-230.411	-25.8971	-61.9437	-222.198	-41.067	-79.4265	-214.141	-49.3532	-102.726	-243.604	15.19	-36.2899	-253.232	28.9832	-6.19727	-226.341	51.0402	-28.0865	
84	0.7	-224.32	79.2496	-16.8332	-211.87	96.6327	-37.2567	-198.551	113.501	-63.7415	-186.52	125.906	-75.3223	-200	48.3392	-91.3915	-184.558	40.7553	-116.974	-176.376	38.8797	-137.786	-199.615	28.4089	-97.1888	-187.104	21.5806	-119.517	-174.574	19.1676	-148.285	-193.616	-5.24262	-80.1078	-172.877	-13.5171	-96.9979	-153.963	-21.9611	-115.671	-196.778	-16.1087	-61.8011	-179.956	-27.6342	-74.0185	-168.682	-31.2365	-94.397	-236.919	8.33653	-39.2456	-254.084	18.8408	-8.43735	-242.21	49.9452	-32.7117	
85	0.708333	-254.705	78.0412	-22.2452	-250.191	96.06	-45.4916	-243.496	115.024	-71.2931	-241.949	133.872	-87.4537	-210.839	57.6388	-97.0159	-197.189	59.3179	-116.281	-184.114	58.8982	-141.649	-203.789	40.588	-98.1641	-186.829	43.8041	-125.333	-173.735	43.678	-149.531	-176.803	16.1118	-77.9478	-156.751	20.2962	-93.6964	-131.509	17.5776	-110.307	-172.258	5.08648	-59.3952	-155.081	7.90919	-70.574	-137.807	2.29103	-91.0863	-223.866	10.5042	-37.0979	-244.671	11.659	-14.5297	-252.806	41.9845	-34.8009	
86	0.716667	-272.706	65.4148	-25.153	-279.668	85.4454	-49.3003	-284.391	105.482	-74.4321	-285.511	122.616	-95.9751	-229.035	56.8585	-100.095	-220.584	63.5112	-126.857	-206.734	65.8866	-152.215	-213.034	41.8642	-100.798	-202.971	50.1079	-127.944	-189.099	52.2271	-160.786	-182.235	34.1667	-82.9243	-158.981	40.1991	-100.03	-140.809	46.1635	-115.511	-174.392	28.8188	-62.7435	-155.189	36.8444	-79.5061	-137.406	34.9493	-93.2887	-220.25	16.0026	-36.9521	-239.376	9.29275	-16.0567	-259.098	32.4228	-38.6849	
87	0.725	-287.426	54.3044	-24.5829	-302.311	70.5484	-48.0956	-307.2	86.3941	-75.2607	-319.302	102.25	-92.3319	-249.432	47.8137	-105.391	-243.23	52.6987	-129.653	-235.049	57.0959	-157.494	-233.477	38.9409	-107.736	-227.787	45.2078	-135.184	-218.607	48.6007	-163.479	-194.428	36.4409	-88.4513	-180.189	46.6371	-108.82	-161.908	57.7554	-130.54	-185.285	37.4385	-69.212	-166.328	46.2838	-87.5947	-152.574	50.512	-104.254	-224.333	15.1383	-40.5869	-238.328	6.90878	-10.5913	-264.497	23.1891	-37.0119	
88	0.733333	-295.809	46.8067	-24.4262	-312.319	59.4888	-43.9425	-329.041	73.7023	-74.5021	-335.729	87.3938	-93.0139	-266.567	35.8461	-102.82	-265.493	38.6137	-134.694	-258.158	39.1431	-157.836	-247.199	26.1882	-111.084	-245.79	29.799	-140.172	-244.825	30.9897	-166.721	-209.752	29.2768	-92.7932	-198.847	38.1466	-116.232	-183.53	47.7599	-139.955	-198.69	31.5903	-77.1849	-185.641	40.3839	-96.185	-170.624	42.8691	-114.723	-235.011	11.1747	-41.5056	-241.359	3.49266	-12.3565	-272.053	18.5101	-38.7242	
89	0.741667	-298.666	44.247	-23.5357	-316.131	55.5075	-43.4977	-331.407	67.6533	-72.4806	-343.411	80.2031	-86.5916	-281.062	22.562	-103.084	-282.304	21.4894	-133.253	-283.25	19.1846	-160.851	-264.642	9.70936	-110.331	-268.455	10.6676	-139.547	-266.539	6.25651	-168.528	-226.839	11.4114	-100.172	-213.727	14.7328	-123.328	-204.231	22.8423	-149.904	-209.02	13.3186	-80.0523	-199.331	19.0663	-105.411	-190.854	19.98	-129.877	-241.637	1.1236	-42.445	-247.725	-3.55945	-10.994	-281.125	11.1916	-35.7912	
90	0.75	-299.265	49.6154	-22.0688	-310.084	61.1355	-45.8604	-330.562	75.8298	-74.1226	-338.708	86.7448	-91.4071	-292.534	14.9275	-100.313	-297.085	12.4055	-127.029	-299.577	7.16692	-158.203	-280.645	0.769827	-104.353	-285.375	-2.21428	-134.224	-289.741	-8.92376	-167.783	-245.387	-7.53571	-99.4876	-233.747	-9.88712	-126.874	-220.856	-9.54746	-157.411	-223.316	-10.099	-87.3508	-218.674	-7.87194	-108.706	-211.887	-10.8241	-131.785	-258.73	-6.08137	-43.1568	-258.22	-9.03383	-12.9112	-291.885	11.1439	-32.4693	
91	0.758333	-294.219	57.121	-25.4638	-304.881	72.5039	-47.2004	-318.391	88.5461	-73.3092	-323.941	100.314	-90.9893	-304.868	20.0251	-105.143	-308.327	14.9673	-127.925	-315.591	9.48224	-154.355	-296.323	2.75551	-103.394	-304.6	-1.53956	-136.999	-311.676	-10.0176	-164.107	-262.819	-19.9598	-104.79	-253.566	-26.0777	-125.481	-245.094	-30.669	-154.157	-244.386	-22.4227	-83.9595	-236.352	-28.914	-110.374	-233.624	-37.8777	-134.108	-273.237	-10.2762	-44.2995	-274.183	-9.1691	-13.6115	-295.393	17.265	-34.7081	
92	0.766667	-285.406	63.241	-27.2178	-291.584	76.9649	-49.3417	-306.585	95.8925	-78.2052	-309.561	107.519	-97.4042	-308.683	25.8293	-100.897	-319.066	22.0517	-127.407	-326.84	16.1732	-149.235	-307.748	3.71111	-103.707	-316.64	1.60511	-132.706	-332.177	-1.81185	-160.18	-281.313	-24.0238	-100.473	-277.312	-32.8909	-125.951	-275.663	-38.4089	-151.416	-265.038	-32.4585	-84.3484	-262.015	-38.9997	-108.373	-263.857	-48.5423	-133.434	-284.242	-10.5053	-41.8749	-284.615	-2.22634	-8.42929	-297.121	23.3629	-30.3102	
93	0.775	-278.223	67.1125	-27.4549	-285.684	83.6184	-52.8241	-292.176	100.674	-77.5015	-295.608	118.084	-95.3242	-316.77	40.5138	-96.7533	-327.251	37.5768	-121.468	-342.163	33.8805	-146.487	-322.163	18.6942	-103.24	-331.801	16.8655	-125.919	-348.841	11.6976	-150.882	-304.043	-18.0807	-98.723	-304.455	-25.4107	-119.794	-308.125	-32.2191	-150.424	-290.785	-26.5449	-81.7302	-291.712	-36.2105	-105.774	-297.413	-46.7422	-129.038	-301.235	1.53629	-38.9899	-294.58	8.01355	-8.33487	-303.177	36.2547	-28.7001	
94	0.783333	-271.292	70.1298	-23.5124	-273.592	93.0846	-47.9671	-281.347	110.843	-77.8072	-279.838	121.833	-94.4995	-321.586	59.955	-93.9615	-334.22	57.4109	-114.873	-347.82	59.8887	-136.908	-331.979	41.3284	-95.7551	-344.421	43.5052	-119.663	-365.351	41.844	-141.394	-325.812	3.07866	-91.2402	-330.673	-2.24892	-113.526	-340.439	-12.0472	-142.886	-314.352	-11.9202	-76.076	-319.626	-23.6648	-95.7519	-333.25	-27.7581	-119.186	-310.022	16.8587	-32.6718	-304.186	19.4367	-1.62972	-303.488	48.4351	-23.5623	
95	0.791667	-258.42	71.6703	-20.1724	-252.946	92.4045	-41.9915	-258.5	111.88	-71.4149	-250.403	126.671	-88.7537	-317.271	84.9436	-83.0919	-331.858	90.7797	-104.431	-347.124	97.9614	-128.194	-334.177	67.7789	-84.6936	-342.827	76.2521	-104.853	-364.709	85.4002	-127.353	-341.213	32.3251	-80.9087	-349.838	30.3294	-101.426	-362.071	29.0507	-128.415	-334.619	10.72	-64.9222	-347.618	8.73947	-92.7424	-359.154	12.9126	-111.199	-319.931	35.4626	-26.0774	-303.635	34.6196	4.35492	-294.938	68.1959	-17.3108	
96	0.8	-242.084	68.0142	-19.7192	-234.452	85.583	-41.9306	-225.673	110.361	-68.8837	-219.532	120.251	-86.785	-294.781	103.434	-72.3203	-304.894	120.976	-93.1272	-320.814	134.067	-114.835	-316.611	92.5411	-72.9056	-328.203	108.83	-96.0093	-340.318	125.865	-112.847	-336.274	66.7268	-72.0698	-350.317	69.117	-93.8131	-364.384	71.9704	-117.727	-338.737	43.1805	-62.1004	-351.153	44.9521	-84.6399	-365.969	49.5663	-100.732	-312.843	53.8994	-19.5918	-301.005	47.4086	9.44639	-275.418	73.6093	-11.1098	
97	0.808333	-225.23	59.4365	-18.4778	-210.589	74.6701	-39.9086	-199.295	92.7178	-64.4101	-186.714	107.652	-85.5548	-265.726	108.98	-67.5833	-273.28	130.59	-90.5032	-282.652	148.823	-109.539	-292.768	106.146	-68.8867	-296.507	128.023	-91.8794	-303.034	149.212	-108.647	-318.592	84.1761	-68.0341	-334.32	89.0351	-87.7668	-347.838	98.9696	-111.312	-325.865	61.6606	-59.3283	-337.228	68.6206	-82.1416	-351.698	78.1852	-97.404	-294.145	67.2995	-17.3119	-284.576	50.5903	12.9401	-260.007	75.0489	-11.4172	
98	0.816667	-205.809	52.1673	-15.7499	-187.448	62.6576	-36.6507	-173.882	81.1888	-64.5766	-163.667	87.5636	-82.8353	-243.242	103.703	-70.6596	-244.881	123.89	-94.0231	-249.619	141.968	-110.938	-265.436	106.993	-70.6141	-265.064	124.81	-91.719	-269.653	150.977	-114.483	-298.64	87.0225	-69.8123	-311.503	92.8446	-89.0622	-321.275	104.314	-113.46	-307.186	66.7827	-60.9312	-316.796	73.9325	-84.2471	-330.636	86.4805	-100.537	-277.628	68.7084	-18.5977	-270.347	52.8651	13.0568	-237.37	69.5186	-8.81469	
99	0.825	-195.059	42.7893	-16.8355	-173.699	50.807	-36.8116	-154.433	60.8212	-60.9397	-141.26	63.7203	-79.3176	-222.1	90.8985	-79.4259	-221.261	103.735	-99.8201	-223.515	121.057	-123.564	-243.437	94.5376	-76.9276	-239.894	111.331	-104.406	-240.086	132.034	-128.633	-279.769	78.1371	-77.6409	-286.998	83.2338	-99.7739	-295.465	90.3141	-126.261	-286.956	60.9426	-62.7137	-296.896	64.5209	-87.1708	-305.261	73.003	-107.491	-262.268	65.5437	-18.8715	-254.529	54.6142	9.48267	-223.742	65.0107	-8.67266	
